<svg xmlns="http://www.w3.org/2000/svg" viewBox="0 0 32 32">
  <rect width="32" height="32" rx="8" fill="#141412"/>
  <svg x="2" y="2" width="28" height="28" viewBox="0 0 2380 1792">
    <path fill="#C8963E" d="M373.583740,1348.999512 C373.583740,1403.771362 373.583740,1458.543091 373.583740,1514.794678 C376.962463,1512.914917 378.661682,1512.021484 380.311310,1511.044434 C467.385010,1459.471313 554.398743,1407.796387 641.638550,1356.505981 C648.093445,1352.711060 648.873169,1348.251831 648.867859,1341.929810 C648.694824,1134.294189 648.628540,926.658508 648.546692,719.022827 C648.545593,716.166138 648.546570,713.309448 648.546570,708.458252 C829.908997,816.699585 1009.577332,923.929932 1189.657471,1031.406006 C1339.143921,942.255432 1488.653809,853.090942 1637.817383,764.132935 C1637.817383,657.807983 1637.817383,552.314819 1637.817383,445.430206 C1487.761841,534.839783 1338.617676,623.706421 1189.682251,712.448608 C917.691040,550.834045 646.192383,389.512146 373.589478,227.534103 C373.589478,601.821472 373.589478,974.410461 373.583740,1348.999512z"/>
    <path fill="#C8963E" d="M2004.422485,1151.000122 C2004.425171,869.672180 2004.436279,588.344299 2004.416138,307.016388 C2004.414307,281.360107 2004.212280,255.703812 2004.082764,230.047607 C2003.009888,229.089508 2001.462646,229.460770 1999.177246,230.696899 C1912.565674,282.445038 1826.017456,334.300262 1739.244629,385.776764 C1731.905029,390.130890 1729.742798,394.887238 1729.749146,403.167847 C1729.991821,715.495239 1729.974976,1027.822754 1729.992798,1340.150269 C1729.993042,1343.807373 1729.992676,1347.464355 1729.992676,1351.498413 C1821.009766,1405.539551 1911.924438,1459.519897 2004.423340,1514.440796 C2004.423340,1392.651367 2004.423340,1272.825806 2004.422485,1151.000122z"/>
  </svg>
</svg>